<svg xmlns="http://www.w3.org/2000/svg" xmlns:xlink="http://www.w3.org/1999/xlink" width="248" zoomAndPan="magnify" viewBox="0 0 186 95.999999" height="128" preserveAspectRatio="xMidYMid meet" version="1.0"><path fill="#DAA520" d="M 175.148438 36.609375 C 178.070312 39.605469 173.453125 46.074219 176.902344 48.453125 C 179.007812 49.894531 179.007812 52.949219 178.773438 55.507812 C 178.507812 58.269531 178.070312 61.386719 175.820312 62.972656 C 174.738281 63.738281 173.453125 64.003906 172.195312 64.269531 C 168.515625 65.03125 164.832031 65.824219 161.148438 66.589844 C 159.628906 66.914062 157.992188 67.238281 156.53125 66.679688 C 155.101562 66.148438 153.960938 64.414062 154.632812 63.003906 C 152.996094 70.644531 144.023438 75.789062 136.660156 73.292969 C 130.347656 71.144531 127.953125 62.945312 129.472656 56.417969 C 128.917969 59.359375 128.359375 62.296875 127.804688 65.238281 C 127.628906 66.03125 127.453125 66.882812 126.898438 67.441406 C 126.167969 68.207031 125 68.265625 123.949219 68.265625 C 99.371094 68.558594 74.792969 68.851562 50.214844 69.117188 C 47.554688 69.148438 46.328125 65.765625 46.328125 63.09375 C 46.300781 60.386719 46.445312 57.183594 44.253906 55.65625 C 47.761719 62.179688 44.019531 71.46875 37.007812 73.703125 C 29.992188 75.9375 21.632812 70.5 20.789062 63.121094 C 21.195312 65.738281 18.828125 68.117188 16.257812 68.675781 C 13.714844 69.234375 11.085938 68.472656 8.570312 67.707031 C 5.96875 66.914062 2.757812 65.179688 3.28125 62.503906 C 3.953125 59.152344 2.8125 55.625 3.371094 52.246094 C 4.507812 45.335938 11.992188 41.605469 18.683594 39.695312 C 27.714844 37.105469 37.066406 35.726562 46.445312 35.609375 C 56.734375 35.460938 65.207031 27.847656 74.765625 23.96875 C 90.632812 17.472656 108.574219 21.558594 125.703125 21.085938 C 127.105469 21.058594 128.535156 21 129.761719 21.585938 C 131.925781 22.617188 134.207031 23.351562 136.484375 24.054688 C 148.496094 27.789062 160.476562 31.523438 172.488281 35.253906 C 173.453125 35.550781 174.445312 35.871094 175.148438 36.609375 M 43.875 54.097656 C 41.769531 51.097656 38.410156 49.070312 34.785156 48.628906 C 31.191406 48.160156 27.421875 49.304688 24.644531 51.6875 C 24.789062 51.980469 25.054688 52.214844 25.375 52.304688 C 26.019531 51.628906 26.925781 51.214844 27.886719 51.15625 C 25.929688 52.390625 23.679688 54.15625 24.03125 56.449219 C 23.503906 56.15625 22.980469 56.832031 22.773438 57.390625 C 21.75 60.386719 21.957031 63.796875 23.386719 66.621094 C 24.03125 67.882812 25.785156 68.207031 27.097656 67.648438 C 28.414062 67.117188 29.320312 65.882812 30.023438 64.648438 C 30.605469 63.621094 31.542969 62.328125 32.679688 62.710938 C 30.519531 64.648438 29.117188 67.414062 28.851562 70.292969 C 28.238281 70.089844 27.886719 69.324219 28.121094 68.707031 C 27.625 68.472656 27.070312 68.234375 26.515625 68.414062 C 25.988281 68.589844 25.695312 69.382812 26.136719 69.707031 C 28.472656 71.46875 31.425781 72.351562 34.347656 72.144531 C 35.164062 72.085938 36.042969 71.910156 36.625 71.351562 C 37.855469 70.175781 37.269531 68.089844 36.363281 66.679688 C 35.457031 65.238281 34.230469 63.769531 34.433594 62.09375 C 35.632812 64.589844 37.621094 66.679688 40.074219 67.914062 C 40.398438 68.089844 40.777344 68.265625 41.128906 68.207031 C 41.742188 68.148438 42.148438 67.648438 42.472656 67.148438 C 44.253906 64.238281 44.605469 60.476562 43.378906 57.300781 C 43.171875 56.832031 42.792969 56.273438 42.296875 56.417969 C 42.121094 57.183594 41.769531 57.859375 41.273438 58.449219 C 42.238281 58.652344 43.113281 59.300781 43.550781 60.210938 C 41.945312 59.769531 40.25 59.535156 38.585938 59.566406 C 39.664062 58.59375 40.6875 57.59375 41.652344 56.535156 C 41.886719 56.273438 42.148438 55.949219 42.179688 55.597656 C 42.179688 55.273438 41.972656 54.980469 41.800781 54.742188 C 40.804688 53.363281 39.609375 52.128906 38.292969 51.070312 C 40.484375 51.804688 42.441406 53.304688 43.699219 55.242188 C 44.195312 55.300781 44.167969 54.507812 43.875 54.097656 M 128.273438 21.910156 C 126.550781 24.789062 122.3125 24.292969 119.007812 23.613281 C 97.238281 19.058594 73.769531 23.585938 55.242188 35.929688 C 52.230469 37.929688 48.375 37.753906 44.808594 37.753906 C 34.640625 37.695312 24.46875 39.457031 14.914062 42.925781 C 12.019531 43.984375 9.039062 45.308594 7.226562 47.808594 C 3.953125 52.304688 5.738281 58.59375 5.09375 64.148438 C 9.507812 65.738281 14.125 66.679688 18.828125 66.914062 C 16.199219 59.445312 20.582031 50.277344 28.003906 47.660156 C 35.398438 45.015625 44.546875 49.394531 47.175781 56.859375 C 48.34375 60.210938 48.316406 63.828125 48.695312 67.355469 C 73.273438 66.382812 97.878906 66.03125 122.457031 66.238281 C 124.414062 66.265625 127.074219 65.53125 126.839844 63.589844 C 125.847656 54.890625 133.824219 46.277344 142.535156 46.691406 C 151.242188 47.128906 158.375 56.476562 156.503906 65.03125 C 162.902344 65.648438 169.507812 63.269531 174.097656 58.710938 C 175.585938 57.242188 176.929688 55.332031 176.785156 53.246094 C 176.726562 52.332031 176.40625 51.453125 176.023438 50.628906 C 175.234375 48.925781 174.15625 47.277344 172.546875 46.308594 C 170.96875 45.335938 168.75 45.21875 167.316406 46.425781 C 168.867188 44.339844 170.792969 42.546875 172.984375 41.164062 C 173.25 42.074219 172.78125 43.164062 171.933594 43.601562 C 172.722656 44.484375 174.386719 43.78125 174.710938 42.632812 C 175.0625 41.457031 174.445312 40.222656 173.6875 39.3125 C 171.582031 36.84375 168.28125 35.785156 165.183594 34.875 C 153.085938 31.289062 141.015625 27.730469 128.917969 24.144531 C 128.710938 23.378906 128.476562 22.644531 128.273438 21.910156 M 133.738281 53.421875 C 132.628906 54.480469 132.859375 56.449219 133.914062 57.59375 C 134.964844 58.742188 136.542969 59.210938 138.0625 59.476562 C 139.113281 59.652344 140.402344 59.917969 140.691406 60.945312 C 137.566406 60.503906 134.351562 58.886719 131.429688 60.125 C 131.78125 59.210938 132.6875 58.566406 133.648438 58.507812 C 133.09375 57.742188 132.570312 56.976562 132.015625 56.214844 C 130.609375 59.035156 130.347656 62.414062 131.3125 65.414062 C 131.574219 66.179688 131.898438 66.941406 132.539062 67.441406 C 133.535156 68.175781 134.964844 68.03125 136.015625 67.414062 C 137.070312 66.765625 137.859375 65.765625 138.589844 64.765625 C 139.320312 63.796875 140.050781 62.828125 140.78125 61.828125 C 140.898438 63.355469 139.816406 64.679688 138.882812 65.882812 C 137.917969 67.058594 137.011719 68.589844 137.480469 70.027344 C 137.828125 71.117188 138.941406 71.851562 140.050781 72.058594 C 141.160156 72.292969 142.328125 72.085938 143.441406 71.882812 C 145.691406 71.46875 148.175781 70.824219 149.402344 68.882812 C 148.640625 68.441406 147.734375 68.324219 146.890625 68.5 C 146.917969 69.207031 146.566406 69.910156 145.953125 70.265625 C 145.835938 67.972656 144.871094 65.765625 143.292969 64.121094 C 143.03125 63.828125 142.710938 63.53125 142.59375 63.121094 C 142.503906 62.738281 142.679688 62.238281 143.089844 62.179688 C 144.230469 64.679688 146.246094 66.796875 148.730469 67.972656 C 149.109375 68.148438 149.488281 68.324219 149.898438 68.207031 C 150.277344 68.117188 150.542969 67.765625 150.777344 67.441406 C 152.761719 64.5625 153.289062 60.742188 152.148438 57.417969 C 151.972656 56.917969 151.59375 56.300781 151.066406 56.449219 C 150.71875 57.214844 150.367188 57.949219 150.046875 58.710938 C 151.039062 58.566406 152.089844 59.300781 152.296875 60.300781 C 150.394531 59.476562 148.175781 59.445312 146.214844 60.210938 C 145.542969 60.476562 144.871094 60.859375 144.113281 60.886719 C 143.382812 60.886719 142.535156 60.386719 142.535156 59.652344 C 145.339844 60.003906 148.292969 58.949219 150.21875 56.859375 C 150.863281 56.183594 150.835938 55.039062 150.425781 54.183594 C 149.988281 53.332031 149.257812 52.6875 148.523438 52.070312 C 150.191406 52.714844 151.625 53.980469 152.441406 55.566406 C 152.703125 55.421875 152.851562 55.125 152.878906 54.832031 C 150.890625 51.335938 147.121094 48.894531 143.117188 48.511719 C 139.113281 48.128906 134.964844 49.777344 132.304688 52.832031 C 133.328125 53.039062 134.4375 52.511719 134.878906 51.570312 C 135.257812 52.273438 134.324219 52.863281 133.738281 53.421875 M 175.878906 58.710938 C 174.828125 59.59375 173.746094 60.476562 172.695312 61.386719 C 172.402344 61.621094 172.402344 62.09375 172.664062 62.328125 C 173.65625 62.179688 174.710938 62.035156 175.5 61.386719 C 176.257812 60.742188 176.582031 59.417969 175.878906 58.710938 M 38.351562 69.5 C 38.351562 69.941406 38.378906 70.351562 38.378906 70.765625 C 39.402344 70.558594 40.308594 69.851562 40.746094 68.882812 C 40.015625 68.589844 39.226562 68.382812 38.4375 68.265625 C 38.410156 68.675781 38.378906 69.089844 38.320312 69.5 M 136.601562 69.792969 C 136.542969 69.382812 136.457031 68.972656 136.398438 68.558594 C 135.902344 68.414062 135.316406 68.234375 134.847656 68.472656 C 134.351562 68.675781 134.148438 69.46875 134.585938 69.734375 C 135.199219 70.117188 135.8125 70.46875 136.398438 70.851562 C 136.574219 70.527344 136.632812 70.148438 136.542969 69.824219 M 154.574219 58.652344 C 154.546875 57.773438 154.3125 56.917969 153.902344 56.15625 C 153.375 56.976562 153.523438 58.152344 154.195312 58.859375 " fill-opacity="1" fill-rule="nonzero"/><path fill="#DAA520" d="M 36.453125 59.652344 C 36.773438 59.683594 37.09375 59.683594 37.386719 59.710938 C 36.976562 60.152344 36.539062 60.59375 35.984375 60.769531 C 35.429688 60.945312 34.699219 60.710938 34.492188 60.152344 C 35.078125 59.828125 35.777344 59.652344 36.453125 59.625 " fill-opacity="1" fill-rule="nonzero"/><path fill="#DAA520" d="M 93.351562 44.28125 C 91.128906 45.632812 88.179688 45.691406 85.925781 44.425781 C 88.382812 44.660156 90.867188 44.601562 93.351562 44.28125 " fill-opacity="1" fill-rule="nonzero"/><path fill="#DAA520" d="M 13.304688 48.1875 C 13.363281 48.777344 13.453125 49.363281 13.277344 49.921875 C 13.101562 50.480469 12.605469 50.980469 12.019531 50.921875 C 10.851562 50.835938 9.683594 50.71875 8.484375 50.628906 C 8.046875 50.570312 7.898438 49.921875 8.191406 49.570312 C 8.453125 49.21875 8.953125 49.101562 9.390625 49.070312 C 10.441406 48.925781 11.492188 48.925781 12.515625 49.042969 C 12.574219 48.660156 12.898438 48.304688 13.304688 48.1875 " fill-opacity="1" fill-rule="nonzero"/><path fill="#DAA520" d="M 27.304688 61.300781 C 27.683594 61.445312 27.976562 61.738281 28.179688 62.0625 C 28.734375 62.945312 28.707031 64.210938 28.0625 65.0625 C 27.421875 65.882812 26.253906 66.296875 25.230469 65.972656 C 24.964844 64.472656 24.207031 63.035156 23.097656 61.945312 C 24 61.5625 24.964844 61.328125 25.960938 61.210938 C 26.398438 61.152344 26.894531 61.121094 27.304688 61.300781 " fill-opacity="1" fill-rule="nonzero"/><path fill="#DAA520" d="M 148.992188 66.03125 C 147.882812 65.972656 146.773438 65.386719 146.304688 64.414062 C 145.808594 63.414062 146.070312 62.0625 147.003906 61.476562 C 148.351562 60.652344 150.015625 61.621094 151.566406 61.769531 C 150.949219 62.972656 150.308594 64.179688 149.695312 65.414062 C 149.546875 65.707031 149.3125 66.03125 148.992188 66.03125 " fill-opacity="1" fill-rule="nonzero"/><path fill="#DAA520" d="M 34.988281 66.707031 C 35.429688 67.796875 35.574219 69 35.429688 70.148438 C 34.199219 70.265625 32.945312 70.292969 31.6875 70.234375 C 31.453125 70.234375 31.191406 70.207031 30.988281 70.058594 C 30.695312 69.824219 30.695312 69.382812 30.722656 68.972656 C 30.898438 67.03125 31.777344 64.886719 33.644531 64.328125 C 33.585938 65.179688 33.148438 66.03125 32.476562 66.5625 C 33.296875 66.738281 34.140625 66.796875 34.988281 66.707031 " fill-opacity="1" fill-rule="nonzero"/><path fill="#DAA520" d="M 142.066406 65.941406 C 141.480469 65.648438 141.160156 64.945312 141.277344 64.296875 C 143.003906 65.296875 144.140625 67.207031 144.199219 69.207031 C 144.199219 69.46875 144.171875 69.765625 143.996094 69.96875 C 143.761719 70.234375 143.382812 70.265625 143.03125 70.265625 C 141.890625 70.265625 140.75 70.265625 139.613281 70.234375 C 139.289062 69.089844 139.40625 67.796875 139.875 66.679688 C 139.933594 66.5 140.050781 66.324219 140.195312 66.238281 C 140.519531 66.0625 140.898438 66.265625 141.25 66.355469 C 141.597656 66.472656 142.125 66.296875 142.066406 65.941406 " fill-opacity="1" fill-rule="nonzero"/><path fill="#DAA520" d="M 31.132812 55.390625 C 30.285156 55.714844 29.582031 56.390625 29.234375 57.242188 C 30.109375 57.449219 30.988281 57.683594 31.863281 57.890625 C 31.890625 58.332031 31.484375 58.710938 31.042969 58.769531 C 30.605469 58.828125 30.199219 58.683594 29.789062 58.507812 C 27.945312 57.800781 25.871094 56.566406 25.785156 54.597656 C 26.691406 53.949219 27.625 53.304688 28.53125 52.65625 C 28.765625 52.480469 29.027344 52.304688 29.292969 52.363281 C 29.496094 52.421875 29.671875 52.570312 29.816406 52.746094 C 30.429688 53.507812 30.898438 54.421875 31.132812 55.390625 " fill-opacity="1" fill-rule="nonzero"/><path fill="#DAA520" d="M 41.59375 65.296875 C 41.476562 65.648438 41.273438 66.03125 40.921875 66.148438 C 40.6875 66.207031 40.453125 66.121094 40.25 66.03125 C 39.257812 65.648438 38.351562 65.089844 37.5625 64.386719 C 36.976562 63.855469 36.394531 63.152344 36.394531 62.328125 C 36.421875 61.503906 37.328125 60.710938 38.03125 61.121094 C 37.328125 61.503906 37.589844 62.828125 38.378906 62.945312 C 39.199219 63.0625 39.8125 61.917969 39.316406 61.269531 C 40.542969 61.179688 41.800781 61.445312 42.878906 62.003906 C 42.472656 63.09375 42.03125 64.210938 41.59375 65.296875 " fill-opacity="1" fill-rule="nonzero"/><path fill="#DAA520" d="M 143.351562 57.59375 C 144.140625 57.917969 145.136719 57.625 145.660156 56.949219 C 144.785156 57.035156 143.996094 56.273438 143.847656 55.421875 C 143.703125 54.566406 144.082031 53.6875 144.667969 53.039062 C 145.019531 52.65625 145.484375 52.332031 145.984375 52.453125 C 146.1875 52.511719 146.390625 52.628906 146.539062 52.773438 C 147.238281 53.273438 147.910156 53.773438 148.613281 54.273438 C 148.757812 54.421875 148.933594 54.539062 149.023438 54.714844 C 149.226562 55.097656 149.050781 55.566406 148.816406 55.917969 C 148.027344 57.15625 146.625 57.890625 145.28125 58.449219 C 144.84375 58.652344 144.347656 58.828125 143.90625 58.683594 C 143.441406 58.566406 143.089844 58.007812 143.351562 57.59375 " fill-opacity="1" fill-rule="nonzero"/><path fill="#DAA520" d="M 37.5625 58.449219 C 38.175781 57.652344 37.066406 56.300781 36.1875 56.773438 C 36.011719 57.035156 35.953125 57.417969 36.042969 57.742188 C 36.335938 57.917969 36.625 58.125 36.917969 58.300781 C 36.625 58.886719 35.71875 58.710938 35.28125 58.242188 C 33.996094 56.859375 34.902344 54.597656 35.953125 53.007812 C 36.1875 52.714844 36.453125 52.363281 36.832031 52.304688 C 37.152344 52.273438 37.472656 52.511719 37.765625 52.714844 C 38.46875 53.273438 39.199219 53.832031 39.898438 54.390625 C 40.105469 54.539062 40.308594 54.714844 40.398438 54.949219 C 40.484375 55.332031 40.25 55.683594 40.015625 55.980469 C 39.285156 56.890625 38.46875 57.710938 37.5625 58.449219 " fill-opacity="1" fill-rule="nonzero"/><path fill="#DAA520" d="M 24.996094 58.476562 C 24.234375 58.09375 23.886719 57.035156 24.234375 56.273438 C 25.433594 58.152344 27.539062 59.417969 29.757812 59.566406 C 30.722656 59.625 31.921875 59.59375 32.417969 60.417969 C 31.042969 61.328125 29.292969 60.417969 27.714844 59.976562 C 26.019531 59.476562 24.148438 59.59375 22.511719 60.300781 C 22.949219 59.300781 23.914062 58.566406 24.996094 58.476562 " fill-opacity="1" fill-rule="nonzero"/><path fill="#DAA520" d="M 138.558594 52.746094 C 139.378906 53.804688 140.253906 54.921875 140.34375 56.242188 C 140.429688 57.59375 139.378906 59.066406 138.0625 58.859375 C 137.363281 58.769531 136.804688 58.210938 136.308594 57.683594 C 135.460938 56.800781 134.585938 55.832031 134.496094 54.625 C 135.492188 53.949219 136.457031 53.273438 137.449219 52.597656 C 137.625 52.453125 137.828125 52.332031 138.0625 52.363281 C 138.269531 52.390625 138.414062 52.570312 138.558594 52.746094 M 137.15625 57.15625 C 137.480469 57.652344 138.210938 57.800781 138.734375 57.507812 C 139.230469 57.214844 139.40625 56.476562 139.113281 55.949219 C 138.296875 55.742188 137.332031 56.332031 137.15625 57.183594 " fill-opacity="1" fill-rule="nonzero"/><path fill="#DAA520" d="M 138.441406 62.796875 C 137.652344 64.355469 136.222656 65.53125 134.585938 66.0625 C 134.382812 66.121094 134.175781 66.148438 133.972656 66.121094 C 133.59375 66.003906 133.417969 65.589844 133.269531 65.207031 C 132.859375 64.148438 132.453125 63.09375 132.042969 62.003906 C 133.765625 61.121094 135.785156 60.859375 137.625 61.328125 C 138.0625 61.445312 138.558594 61.652344 138.648438 62.09375 C 138.675781 62.355469 138.558594 62.59375 138.441406 62.796875 M 136.132812 61.738281 C 135.285156 61.796875 135.023438 63.179688 135.753906 63.589844 C 136.515625 63.972656 137.480469 62.945312 137.039062 62.210938 C 136.75 62.0625 136.425781 61.886719 136.105469 61.710938 " fill-opacity="1" fill-rule="nonzero"/><path fill="#DAA520" d="M 20.378906 45.515625 C 20.347656 46.132812 19.734375 46.574219 19.121094 46.691406 C 18.535156 46.835938 17.894531 46.75 17.28125 46.808594 C 16.402344 46.894531 15.554688 47.25 14.679688 47.453125 C 13.128906 47.835938 11.433594 47.660156 9.972656 47.011719 C 14.679688 45.71875 19.5 44.839844 24.351562 44.339844 C 23.269531 45.25 21.78125 45.691406 20.378906 45.515625 " fill-opacity="1" fill-rule="nonzero"/><path fill="#DAA520" d="M 10.910156 61.710938 C 11.550781 60.5625 10.296875 59.269531 9.070312 58.828125 C 7.839844 58.390625 6.378906 58.152344 5.707031 57.035156 C 6.085938 57.007812 6.46875 56.976562 6.847656 56.949219 C 8.484375 56.800781 10.382812 56.773438 11.464844 58.035156 C 12.253906 58.949219 12.339844 60.242188 12.664062 61.417969 C 12.957031 62.59375 13.800781 63.855469 15 63.796875 C 14.824219 64.355469 14.007812 64.328125 13.453125 64.179688 C 11.785156 63.738281 10.03125 63.210938 9.011719 61.859375 C 8.25 60.859375 6.933594 60.5625 5.738281 60.359375 C 7.375 59.152344 10.03125 59.859375 10.910156 61.710938 " fill-opacity="1" fill-rule="nonzero"/><path fill="#DAA520" d="M 41.011719 43.28125 C 47.878906 42.664062 54.804688 42.425781 61.699219 42.664062 C 62.460938 42.664062 63.453125 42.898438 63.511719 43.664062 C 61.46875 43.722656 59.421875 43.78125 57.375 43.839844 C 55.652344 43.867188 53.898438 43.925781 52.171875 43.957031 C 48.433594 44.074219 44.632812 44.160156 41.011719 43.28125 " fill-opacity="1" fill-rule="nonzero"/><path fill="#DAA520" d="M 137.332031 50.65625 C 140.3125 48.925781 144.230469 49.070312 147.0625 51.011719 C 145.953125 50.363281 144.40625 50.863281 143.585938 51.863281 C 142.738281 52.863281 142.476562 54.214844 142.386719 55.539062 C 142.300781 56.832031 142.359375 58.152344 142.066406 59.417969 C 141.539062 59.445312 141.160156 58.859375 141.160156 58.332031 C 141.160156 57.800781 141.394531 57.300781 141.480469 56.773438 C 141.597656 56.125 141.511719 55.449219 141.394531 54.804688 C 141.160156 53.746094 140.839844 52.6875 140.167969 51.832031 C 139.496094 51.011719 138.382812 50.453125 137.332031 50.65625 M 142.097656 52.832031 C 142.300781 51.953125 142.828125 51.128906 143.558594 50.597656 C 142.476562 50.039062 141.101562 50.070312 140.050781 50.628906 C 140.664062 51.304688 141.308594 51.980469 141.921875 52.65625 " fill-opacity="1" fill-rule="nonzero"/><path fill="#DAA520" d="M 33.265625 59.359375 C 33.03125 59.210938 32.796875 59.09375 32.59375 58.949219 C 32.535156 58.007812 32.507812 57.035156 32.449219 56.097656 C 32.359375 54.304688 32.125 52.246094 30.605469 51.304688 C 29.757812 50.777344 28.675781 50.746094 27.683594 50.953125 C 30.839844 49.070312 34.988281 49.011719 38.175781 50.835938 C 36.394531 50.277344 34.433594 51.65625 33.761719 53.421875 C 33.089844 55.183594 33.382812 57.125 33.851562 58.949219 C 33.644531 59.09375 33.441406 59.210938 33.265625 59.359375 M 33.527344 50.304688 C 32.796875 50.101562 32.007812 50.21875 31.335938 50.597656 C 32.007812 51.277344 32.566406 52.070312 32.886719 52.949219 C 33.296875 52.011719 33.996094 51.246094 34.84375 50.71875 C 34.492188 50.421875 34.027344 50.246094 33.527344 50.246094 " fill-opacity="1" fill-rule="nonzero"/><path fill="#DAA520" d="M 130.609375 41.75 C 127.425781 41.957031 124.238281 42.105469 121.054688 42.222656 C 118.015625 42.339844 114.976562 42.488281 111.90625 42.605469 C 114.886719 41.339844 118.191406 41.105469 121.40625 40.929688 C 137.828125 40.074219 154.3125 40.164062 170.734375 41.222656 C 161.648438 42.839844 152.324219 40.988281 143.089844 41.046875 C 138.941406 41.046875 134.761719 41.457031 130.609375 41.75 " fill-opacity="1" fill-rule="nonzero"/><path fill="#DAA520" d="M 102.378906 54.683594 C 108.460938 54.539062 114.539062 54.390625 120.527344 55.359375 C 98.144531 55.390625 75.785156 56.597656 53.519531 58.976562 C 63.105469 55.683594 73.417969 55.390625 83.53125 55.15625 C 89.8125 55.007812 96.097656 54.832031 102.378906 54.683594 " fill-opacity="1" fill-rule="nonzero"/><path fill="#DAA520" d="M 63.277344 61.652344 C 59.390625 62.0625 55.476562 62.152344 51.589844 61.917969 C 55.445312 61.09375 59.421875 60.859375 63.367188 60.621094 C 83.035156 59.507812 102.671875 58.390625 122.339844 57.242188 C 119.652344 58.683594 116.523438 58.949219 113.515625 59.152344 C 96.972656 60.300781 80.460938 61.476562 63.921875 62.621094 C 63.425781 62.679688 62.8125 62.652344 62.546875 62.210938 C 62.285156 61.769531 63.132812 61.152344 63.277344 61.652344 " fill-opacity="1" fill-rule="nonzero"/><path fill="#DAA520" d="M 106.09375 62.328125 C 111.9375 61.976562 117.8125 62.414062 123.507812 63.679688 C 99.050781 63.5625 74.589844 64.0625 50.15625 65.148438 C 56.792969 62.914062 63.949219 63.269531 70.9375 63.386719 C 79.382812 63.472656 87.796875 63.152344 96.183594 62.355469 C 99.429688 63.035156 102.789062 62.5625 106.09375 62.328125 " fill-opacity="1" fill-rule="nonzero"/><path fill="#DAA520" d="M 67.488281 43.542969 C 68.042969 41.957031 65.472656 40.429688 64.390625 41.722656 C 64.945312 40.253906 63.191406 38.839844 61.613281 38.753906 C 60.0625 38.695312 58.484375 39.339844 56.9375 39.164062 C 67.515625 31.082031 80.433594 26.144531 93.699219 25.085938 C 99.3125 24.671875 104.953125 24.910156 110.535156 25.4375 C 123.070312 26.585938 135.460938 29.113281 147.445312 32.902344 C 140.75 36.253906 132.976562 36.519531 125.496094 36.726562 C 107.785156 37.195312 90.078125 37.664062 72.367188 38.136719 C 71.109375 38.164062 69.765625 38.222656 68.742188 38.960938 C 67.691406 39.722656 67.28125 41.398438 68.21875 42.25 C 69.242188 43.164062 71.109375 42.574219 71.929688 43.664062 C 70.46875 43.925781 68.949219 43.867188 67.488281 43.542969 M 92.765625 33.375 C 92.648438 31.609375 93.964844 30.140625 95.191406 28.90625 C 94.8125 30.257812 94.460938 31.640625 94.082031 33.019531 C 93.933594 33.667969 94.167969 34.695312 94.78125 34.433594 C 95.71875 32.726562 96.359375 30.847656 96.625 28.90625 C 97.207031 28.757812 97.585938 28.023438 97.355469 27.4375 C 96.742188 27.9375 95.835938 27.671875 95.074219 27.496094 C 93.320312 27.113281 91.507812 27.261719 89.753906 27.496094 C 83.792969 28.289062 77.921875 29.90625 72.398438 32.257812 C 72.835938 32.84375 73.769531 32.492188 74.414062 32.140625 C 75.054688 31.757812 75.992188 31.464844 76.402344 32.082031 C 75.4375 32.464844 75.40625 34.136719 76.371094 34.550781 C 75.902344 34.609375 75.875 35.371094 76.226562 35.695312 C 76.574219 35.992188 77.101562 36.019531 77.597656 35.992188 C 82.886719 35.84375 88.207031 35.726562 93.496094 35.578125 C 93.175781 34.875 92.824219 34.136719 92.765625 33.375 M 105.535156 27.203125 C 104.863281 27.140625 104.132812 27.082031 103.519531 27.40625 C 102.9375 27.730469 102.585938 28.640625 103.023438 29.140625 C 104.046875 29.730469 104.894531 30.730469 105.128906 31.90625 C 105.332031 33.050781 104.835938 34.375 103.8125 34.960938 C 109.539062 34.933594 115.269531 34.902344 120.996094 34.84375 C 121.199219 33.640625 119.769531 32.785156 119.417969 31.609375 C 119.15625 30.757812 119.476562 29.699219 118.921875 29.023438 C 118.484375 28.496094 117.78125 28.40625 117.140625 28.347656 C 113.28125 27.964844 109.421875 27.582031 105.535156 27.203125 M 144.171875 33.578125 C 144.199219 32.875 143.410156 32.433594 142.738281 32.226562 C 140.371094 31.523438 137.886719 31.347656 135.460938 31.082031 C 132.335938 30.730469 129.207031 30.140625 126.167969 29.347656 C 126.34375 30.171875 126.492188 31.050781 126.957031 31.757812 C 127.394531 32.492188 128.183594 33.050781 129.003906 33.019531 C 134.058594 32.699219 139.144531 32.875 144.171875 33.578125 M 71.898438 33.34375 C 71.667969 33.285156 71.433594 33.226562 71.199219 33.285156 C 70.90625 33.34375 70.671875 33.519531 70.410156 33.667969 C 69.765625 34.050781 68.949219 34.109375 68.1875 34.226562 C 65.820312 34.636719 63.660156 35.84375 61.554688 37.046875 C 63.074219 37.753906 64.796875 37.664062 66.464844 37.460938 C 69.09375 37.105469 71.726562 36.460938 74.238281 35.578125 C 74.5 34.402344 73.070312 33.667969 71.898438 33.34375 M 100.6875 31.347656 C 101.386719 30.550781 101.5625 29.40625 101.679688 28.347656 C 101.738281 28.023438 101.765625 27.671875 101.621094 27.378906 C 101.476562 27.082031 101.035156 26.878906 100.800781 27.113281 C 98.464844 28.789062 96.800781 31.347656 96.183594 34.167969 C 97.238281 33.550781 98.261719 32.960938 99.3125 32.375 C 99.808594 32.082031 100.304688 31.785156 100.6875 31.347656 M 122.777344 32.785156 C 123.480469 32.992188 124.328125 32.992188 124.796875 33.550781 C 125.058594 33.875 125.117188 34.34375 125.351562 34.695312 C 125.585938 35.019531 126.199219 35.167969 126.375 34.816406 C 125.4375 32.902344 124.386719 31.082031 123.246094 29.316406 C 122.457031 28.90625 121.523438 28.730469 120.644531 28.816406 C 120.148438 30.40625 121.171875 32.34375 122.777344 32.785156 M 101.765625 32.167969 C 101.300781 32.726562 102.058594 33.640625 102.761719 33.460938 C 103.433594 33.285156 103.785156 32.464844 103.667969 31.757812 C 103.578125 31.050781 103.109375 30.433594 102.671875 29.875 C 102.234375 30.550781 101.972656 31.375 101.941406 32.199219 " fill-opacity="1" fill-rule="nonzero"/></svg>