<svg height="200px" width="200px" version="1.1" id="Layer_1" xmlns="http://www.w3.org/2000/svg" xmlns:xlink="http://www.w3.org/1999/xlink" viewBox="0 0 512.001 512.001" xml:space="preserve" fill="red" stroke="red"><g id="SVGRepo_bgCarrier" stroke-width="0"></g><g id="SVGRepo_tracerCarrier" stroke-linecap="round" stroke-linejoin="round"></g><g id="SVGRepo_iconCarrier"> <path style="fill:#E8E8E8;" d="M471.039,425.244H40.961c-16.99,0-30.762-13.773-30.762-30.762V215.313 c0-16.989,13.772-30.762,30.762-30.762h430.078c16.989,0,30.762,13.772,30.762,30.762v179.169 C501.801,411.471,488.029,425.244,471.039,425.244z"></path> <path d="M471.039,174.352H332.094l-67.836-93.581c-1.918-2.647-4.989-4.213-8.258-4.213s-6.339,1.567-8.258,4.213l-67.836,93.581 H40.961C18.375,174.352,0,192.727,0,215.313v179.169c0,22.586,18.375,40.961,40.961,40.961H471.04 c22.586,0,40.961-18.375,40.961-40.961V215.313C512,192.727,493.625,174.352,471.039,174.352z M256,104.135l50.899,70.216H205.1 L256,104.135z M491.602,394.482c0,11.338-9.224,20.563-20.563,20.563H40.961c-11.338,0-20.563-9.224-20.563-20.563V215.313 c0-11.338,9.224-20.563,20.563-20.563H471.04c11.338,0,20.563,9.224,20.563,20.563v179.169H491.602z"></path> <path d="M372.566,383.243h-4.484c-5.633,0-10.199,4.566-10.199,10.199s4.566,10.199,10.199,10.199h4.484 c5.633,0,10.199-4.566,10.199-10.199S378.199,383.243,372.566,383.243z"></path> <path d="M464.472,383.243h-59.403c-5.633,0-10.199,4.566-10.199,10.199s4.566,10.199,10.199,10.199h59.403 c5.633,0,10.199-4.566,10.199-10.199S470.105,383.243,464.472,383.243z"></path> <path d="M167.711,324.495c0-12.494-32.733-10.327-32.733-34.489c0-15.49,13.527-21.374,26.434-21.374 c5.472,0,20.548,1.032,20.548,9.086c0,2.787-1.859,8.467-6.402,8.467c-3.718,0-5.679-3.924-14.146-3.924 c-7.331,0-10.326,2.994-10.326,6.196c0,10.326,32.733,8.363,32.733,34.385c0,14.869-10.843,22.924-25.815,22.924 c-13.527,0-24.885-6.608-24.885-13.423c0-3.511,3.097-8.673,7.021-8.673c4.854,0,7.951,7.641,17.555,7.641 C162.444,331.309,167.711,329.451,167.711,324.495z"></path> <path d="M199.2,320.984V293.62c0-17.761,11.049-24.369,25.299-24.369c14.249,0,25.401,6.608,25.401,24.369v27.363 c0,17.761-11.153,24.369-25.401,24.369C210.248,345.353,199.2,338.745,199.2,320.984z M233.791,293.62 c0-7.125-3.511-10.327-9.292-10.327c-5.783,0-9.191,3.202-9.191,10.327v27.363c0,7.125,3.408,10.326,9.191,10.326 c5.782,0,9.292-3.201,9.292-10.326V293.62z"></path> <path d="M275.503,344.734c-3.511,0-7.022-1.652-7.022-4.956v-65.673c0-3.408,4.027-4.853,8.054-4.853 c4.027,0,8.053,1.445,8.053,4.853v56.585h23.543c3.098,0,4.648,3.511,4.648,7.022c0,3.511-1.55,7.021-4.648,7.021H275.503z"></path> <path d="M352.839,269.251c14.25,0,25.401,6.608,25.401,24.369v26.744c0,17.761-11.152,24.369-25.401,24.369h-18.277 c-4.234,0-7.022-2.272-7.022-4.853v-65.777c0-2.581,2.787-4.853,7.022-4.853H352.839z M343.65,283.295v47.396h9.19 c5.783,0,9.292-3.305,9.292-10.326V293.62c0-7.022-3.51-10.327-9.292-10.327L343.65,283.295L343.65,283.295z"></path> </g></svg>